# xmcd
#
# Track frame offsets:
#	150
#	14729
#	35246
#	57501
#	83230
#	104615
#	116034
#	141246
#	178276
#	197608
#	219962
#	240833
#	250520
#
# Disc length: 3539 seconds
#
# Revision: 0
# Processed by: cddbd v1.5.1PL2 Copyright (c) Steve Scherf et al.
# Submitted via: audiograbber 1.83.01
#
DISCID=bc0dd10d
DTITLE=Jean-Jacques Milteau - Live A L'Utopia
DYEAR=1993
DGENRE=Blues
TTITLE0=Sweet Home Chicago
TTITLE1=Get Off My Life Woman
TTITLE2=Further On Up The Road
TTITLE3=I Can't Hold Out
TTITLE4=Rollin' and Tumblin'
TTITLE5=Magnolia
TTITLE6=Key To The Highway
TTITLE7=Lonely Crowd
TTITLE8=Seacruise
TTITLE9=B.B. Kong
TTITLE10=I've Got To Go
TTITLE11=Lonesome Train
TTITLE12=Robert Johnson
EXTD=
EXTT0=
EXTT1=
EXTT2=
EXTT3=
EXTT4=
EXTT5=
EXTT6=
EXTT7=
EXTT8=
EXTT9=
EXTT10=
EXTT11=
EXTT12=
PLAYORDER=
